<svg width="8" height="14" viewBox="0 0 8 14" fill="none" xmlns="http://www.w3.org/2000/svg">
<path d="M0.309003 12.2C0.111549 12.3976 0.000673463 12.6655 0.000767231 12.9449C0.000860999 13.2242 0.111916 13.492 0.309503 13.6895C0.507089 13.887 0.775021 13.9978 1.05436 13.9977C1.33369 13.9976 1.60155 13.8866 1.799 13.689L7.691 7.742C7.78891 7.64421 7.86658 7.52807 7.91957 7.40024C7.97256 7.27241 7.99984 7.13538 7.99984 6.997C7.99984 6.85862 7.97256 6.7216 7.91957 6.59376C7.86658 6.46593 7.78891 6.3498 7.691 6.252L1.799 0.309002C1.60128 0.111283 1.33312 0.000205994 1.0535 0.000205994C0.773886 0.000205994 0.505722 0.111283 0.308003 0.309002C0.110284 0.506721 -0.000793457 0.774885 -0.000793457 1.0545C-0.000793457 1.33412 0.110284 1.60228 0.308003 1.8L5.141 7L0.309003 12.2Z" fill="#B4B4B4"/>
</svg>
