<svg width="28" height="25" viewBox="0 0 28 25" fill="none" xmlns="http://www.w3.org/2000/svg">
<path d="M3.674 23.876C3.674 23.876 3.65 24.48 4.24 24.48C4.974 24.48 11.051 24.472 11.051 24.472L11.061 18.891C11.061 18.891 10.965 17.971 11.858 17.971H14.684C15.74 17.971 15.675 18.891 15.675 18.891L15.663 24.454C15.663 24.454 21.425 24.454 22.33 24.454C23.079 24.454 23.045 23.702 23.045 23.702V13.413L13.649 5.055L3.674 13.413V23.876Z" fill="#030104"/>
<path d="M0 12.635C0 12.635 0.847 14.196 2.694 12.635L13.732 3.297L24.081 12.577C26.219 14.119 27.02 12.577 27.02 12.577L13.732 0.540001L0 12.635Z" fill="#030104"/>
<path d="M23.83 3.275H21.168L21.179 6.503L23.83 8.752V3.275Z" fill="#030104"/>
</svg>
