<svg width="14" height="14" viewBox="0 0 14 14" fill="none" xmlns="http://www.w3.org/2000/svg">
<path d="M6.8355 13.8615C6.62334 13.8615 6.44384 13.7904 6.297 13.6482C6.15034 13.5061 6.077 13.331 6.077 13.123V7.62299L0.773001 0.922989C0.640335 0.753822 0.622168 0.58074 0.718502 0.40374C0.814835 0.226907 0.965418 0.138489 1.17025 0.138489H12.8275C13.0322 0.138489 13.1831 0.226907 13.2803 0.40374C13.3774 0.58074 13.3597 0.753822 13.227 0.922989L7.923 7.62299V13.123C7.923 13.331 7.84967 13.5061 7.703 13.6482C7.55617 13.7904 7.37667 13.8615 7.1645 13.8615H6.8355ZM7 7.29999L11.9038 1.06149H2.09625L7 7.29999Z" fill="#5F6368"/>
</svg>
