<svg width="32" height="32" viewBox="0 0 32 32" xmlns="http://www.w3.org/2000/svg">
<path fill="inherit" d="M21.2682 2.50221V6.56179C24.9647 8.47056 27.4988 12.3231 27.4988 16.7734C27.4988 23.1218 22.3521 28.2706 16.0037 28.2706C9.65319 28.2706 4.5044 23.1218 4.5044 16.7734C4.5044 12.6926 6.64035 9.11389 9.84321 7.07454V2.85466C4.50652 5.22098 0.776034 10.5577 0.776034 16.7744C0.776034 25.1834 7.59155 32 15.9995 32C24.4116 32 31.225 25.1834 31.225 16.7744C31.224 10.2169 27.072 4.64877 21.2682 2.50221Z"/>
<path fill="inherit" d="M15.7065 18.7395C17.3796 18.7395 17.5494 17.7511 17.5494 16.5356V2.20814C17.5494 0.989412 17.3796 -4.79783e-06 15.7065 -4.79783e-06C14.0397 -4.79783e-06 13.8678 0.989412 13.8678 2.20814V16.5356C13.8667 17.7522 14.0397 18.7395 15.7065 18.7395Z"/>
</svg>
